# xmcd CD database file
#
# Track frame offsets:
#	150
#	16126
#	43896
#	82816
#	138243
#	168990
#	191189
#	215103
#	249722
#	275529
#	297937
#	322366
#
# Disc length: 4632 seconds
#
# Revision: 0
# Processed by: cddbd v1.5.1PL0 Copyright (c) Steve Scherf et al.
# Submitted via: CDex 1.51
#
DISCID=ba12160c
DTITLE=Sonny Rollins - Tenor Madness - The very Best of Sonny Rollins CD1
DYEAR=2005
DGENRE=Jazz
TTITLE0=No Moe
TTITLE1=It's All Right with me
TTITLE2=Valse Hot
TTITLE3=Tenor Madness
TTITLE4=St. Thomas
TTITLE5=I've grown accustomed to Your Face
TTITLE6=B. Swift
TTITLE7=Two Different Worlds
TTITLE8=I'm an Old Cowhand
TTITLE9=Till there was you
TTITLE10=I've told ev'ry Little Star
TTITLE11=A House is not a Home
EXTD=YEAR: 2005
EXTT0=
EXTT1=
EXTT2=
EXTT3=
EXTT4=
EXTT5=
EXTT6=
EXTT7=
EXTT8=
EXTT9=
EXTT10=
EXTT11=
PLAYORDER=
